<?xml version="1.0" standalone="no"?>
<!DOCTYPE svg PUBLIC "-//W3C//DTD SVG 20010904//EN"
 "http://www.w3.org/TR/2001/REC-SVG-20010904/DTD/svg10.dtd">
<svg version="1.0" xmlns="http://www.w3.org/2000/svg"
 width="80.000000pt" height="80.000000pt" viewBox="0 0 80.000000 80.000000"
 preserveAspectRatio="xMidYMid meet">
<metadata>
Created by potrace 1.13, written by Peter Selinger 2001-2015
</metadata>
<g transform="translate(0.000000,80.000000) scale(0.100000,-0.100000)"
fill="#000000" stroke="none">
<path d="M320 491 l0 -109 -32 -12 c-18 -7 -42 -16 -53 -20 -11 -5 -37 -14
-58 -22 -48 -16 -64 -34 -51 -56 15 -23 82 -43 134 -41 31 2 56 -4 80 -19 38
-24 94 -28 137 -11 39 16 63 25 103 40 114 42 104 91 -22 106 -26 3 -48 7 -48
9 0 2 10 14 21 25 18 18 21 30 17 77 -4 44 -10 60 -31 78 -32 27 -127 64 -167
64 l-30 0 0 -109z m124 23 c3 -9 6 -44 6 -79 0 -54 3 -65 23 -78 l22 -16 -22
0 c-12 -1 -28 -4 -37 -7 -14 -5 -16 7 -16 95 0 93 9 125 24 85z m-124 -214 c0
-8 -60 -30 -82 -30 -21 0 -4 18 25 28 42 13 57 14 57 2z m245 1 c-19 -19 -145
-59 -145 -47 0 7 26 22 58 33 61 23 103 29 87 14z"/>
</g>
</svg>
