<?xml version="1.0" encoding="UTF-8" standalone="no"?>
<!-- Created with Inkscape (http://www.inkscape.org/) -->

<svg
   xmlns:dc="http://purl.org/dc/elements/1.1/"
   xmlns:cc="http://creativecommons.org/ns#"
   xmlns:rdf="http://www.w3.org/1999/02/22-rdf-syntax-ns#"
   xmlns:svg="http://www.w3.org/2000/svg"
   xmlns="http://www.w3.org/2000/svg"
   xmlns:sodipodi="http://sodipodi.sourceforge.net/DTD/sodipodi-0.dtd"
   xmlns:inkscape="http://www.inkscape.org/namespaces/inkscape"
   width="26.167292mm"
   height="5.9266667mm"
   viewBox="0 0 26.167292 5.9266667"
   version="1.1"
   id="svg821"
   inkscape:version="0.92.4 (5da689c313, 2019-01-14)"
   sodipodi:docname="left_bumper.svg">
  <defs
     id="defs815" />
  <sodipodi:namedview
     id="base"
     pagecolor="#ffffff"
     bordercolor="#666666"
     borderopacity="1.0"
     inkscape:pageopacity="0.0"
     inkscape:pageshadow="2"
     inkscape:zoom="0.35"
     inkscape:cx="-103.40716"
     inkscape:cy="259.77145"
     inkscape:document-units="mm"
     inkscape:current-layer="layer1"
     showgrid="false"
     inkscape:window-width="958"
     inkscape:window-height="1018"
     inkscape:window-x="953"
     inkscape:window-y="0"
     inkscape:window-maximized="0" />
  <metadata
     id="metadata818">
    <rdf:RDF>
      <cc:Work
         rdf:about="">
        <dc:format>image/svg+xml</dc:format>
        <dc:type
           rdf:resource="http://purl.org/dc/dcmitype/StillImage" />
        <dc:title></dc:title>
      </cc:Work>
    </rdf:RDF>
  </metadata>
  <g
     inkscape:label="Layer 1"
     inkscape:groupmode="layer"
     id="layer1"
     transform="translate(-98.041358,-211.63786)">
    <g
       transform="matrix(0.26458333,0,0,0.26458333,165.77469,109.61453)"
       id="g6">
      <path
         style="fill:#f5f5f5"
         inkscape:connector-curvature="0"
         id="path2"
         d="m -256,401.1 c 0,-0.8 0.4,-1.5 1.1,-1.9 4.5,-2.9 23.3,-13.6 51.5,-13.6 26.9,0 41.1,5.9 45.1,8 0.8,0.4 1.2,1.2 1.2,2 0,0 -9.8,-2.9 -47.5,-2.9 -37.7,0 -51.4,8.4 -51.4,8.4 z" />
      <path
         style="fill:#ededed"
         inkscape:connector-curvature="0"
         id="path4"
         d="m -256,408 v 0 -6.9 c 0,0 13.7,-8.4 51.4,-8.4 37.8,0 47.5,2.9 47.5,2.9 v 11 0 c -7.7,-1.3 -21.2,-2.6 -44.1,-2.6 -28.5,0 -45.9,2.3 -54.8,4 z" />
    </g>
  </g>
</svg>
