<?xml version="1.0" encoding="iso-8859-1"?>
<!-- Generator: Adobe Illustrator 19.0.0, SVG Export Plug-In . SVG Version: 6.00 Build 0)  -->
<svg version="1.1" id="Capa_1" xmlns="http://www.w3.org/2000/svg" xmlns:xlink="http://www.w3.org/1999/xlink" x="0px" y="0px"
	 viewBox="0 0 511.995 511.995" style="enable-background:new 0 0 511.995 511.995;" xml:space="preserve">
<g>
	<g>
		<path style="fill:#FF401F;" d="M277.26,346.854c-6.199-6.199-16.238-6.199-22.437,0l-54.479,54.479c-20.649,20.633-54.236,20.644-74.885,0l-14.805-14.81
			c-20.644-20.644-20.644-54.241,0-74.885l54.479-54.479c6.199-6.194,6.199-16.243,0-22.437c-6.194-6.199-16.243-6.199-22.437,0
			l-54.479,54.479c-33.015,33.021-33.015,86.749,0,119.765l14.81,14.81c16.508,16.508,38.194,24.764,59.88,24.764
			c21.686,0,43.372-8.251,59.874-24.77l54.479-54.479C283.459,363.097,283.459,353.053,277.26,346.854z"/>
	</g>
</g>
<g>
	<g>
		<path style="fill:#FF401F;" d="M291.557,360.606L151.391,220.441c-6.194-6.194-16.243-6.199-22.442,0c-6.199,6.199-6.199,16.243,0,22.442
			l140.165,140.165c3.099,3.099,7.156,4.649,11.219,4.649c4.057,0,8.119-1.55,11.224-4.655
			C297.756,376.849,297.756,366.8,291.557,360.606z"/>
	</g>
</g>
<g>
	<g>
		<path style="fill:#FF401F;" d="M118.064,416.371c6.199-6.199,6.199-16.243,0-22.437c-6.204-6.204-16.249-6.194-22.442,0l-13.752,13.757
			c-27.139,27.134-27.203,71.781-0.138,99.517c3.11,3.184,7.23,4.787,11.356,4.787c3.999,0,7.997-1.497,11.086-4.506
			c6.268-6.12,6.395-16.164,0.275-22.437c-14.995-15.365-15.053-40.008-0.138-54.924L118.064,416.371z"/>
	</g>
</g>
<g>
	<g>
		<path style="fill:#FF401F;" d="M311.709,270.223c-6.173-6.22-16.217-6.278-22.442-0.111L233.2,325.649c-6.225,6.167-6.273,16.217-0.106,22.442
			c3.099,3.131,7.188,4.702,11.271,4.702c4.036,0,8.071-1.529,11.166-4.591l56.066-55.537
			C317.823,286.498,317.876,276.449,311.709,270.223z"/>
	</g>
</g>
<g>
	<g>
		<path style="fill:#FF401F;" d="M241.779,200.294c-6.225-6.167-16.27-6.12-22.442,0.106L163.8,256.466c-6.167,6.225-6.12,16.27,0.106,22.437
			c3.094,3.068,7.13,4.596,11.166,4.596c4.089,0,8.172-1.571,11.277-4.697l55.537-56.066
			C248.053,216.506,248.005,206.461,241.779,200.294z"/>
	</g>
</g>
<g>
	<g>
		<path style="fill:#FF401F;" d="M423.777,103.03l-14.815-14.81c-16.042-16.048-37.305-24.881-59.88-24.881c-22.564,0-43.832,8.838-59.874,24.881
			l-54.479,54.479c-6.199,6.194-6.199,16.243,0,22.437c6.194,6.199,16.243,6.199,22.442,0l54.479-54.479
			c20.649-20.644,54.241-20.644,74.88,0l14.815,14.81c20.639,20.644,20.639,54.236,0,74.88l-54.485,54.479
			c-6.199,6.194-6.199,16.238,0,22.437c3.1,3.1,7.156,4.649,11.219,4.649s8.119-1.55,11.213-4.639l54.485-54.479
			C456.793,189.774,456.793,136.051,423.777,103.03z"/>
	</g>
</g>
<g>
	<g>
		<path style="fill:#FF401F;" d="M383.055,269.107L242.89,128.942c-6.194-6.199-16.243-6.199-22.437,0c-6.199,6.194-6.199,16.243,0,22.437l140.165,140.165
			c3.1,3.1,7.156,4.649,11.219,4.649c4.057,0,8.119-1.55,11.218-4.649C389.254,285.351,389.254,275.301,383.055,269.107z"/>
	</g>
</g>
<g>
	<g>
		<path style="fill:#FF401F;" d="M430.267,4.793c-6.12-6.284-16.169-6.4-22.437-0.28c-6.278,6.12-6.4,16.164-0.28,22.437
			c14.995,15.365,15.053,40.008,0.138,54.924l-13.752,13.752c-6.199,6.199-6.199,16.249,0,22.442
			c3.099,3.094,7.156,4.644,11.219,4.644s8.13-1.55,11.224-4.644l13.752-13.752C457.264,77.176,457.327,32.529,430.267,4.793z"/>
	</g>
</g>
<g>
</g>
<g>
</g>
<g>
</g>
<g>
</g>
<g>
</g>
<g>
</g>
<g>
</g>
<g>
</g>
<g>
</g>
<g>
</g>
<g>
</g>
<g>
</g>
<g>
</g>
<g>
</g>
<g>
</g>
</svg>
